<svg xmlns="http://www.w3.org/2000/svg" viewBox="97 19 619 619"><rect x="97" y="19" width="619" height="619" rx="136" fill="#15211A"/><path fill="#F7F4E6" fill-rule="evenodd" d="M377.5 389.7L377.5 245.8L375.1 243.9C371.4 240.9 368.2 241.6 356.5 248.1C350.4 251.5 339.9 257.3 333.0 261.0C326.1 264.7 311.3 272.8 300.0 279.0C288.7 285.2 272.1 294.3 263.0 299.3C253.9 304.2 239.8 312.0 231.5 316.5C223.2 321.0 212.2 327.1 206.9 329.9C201.6 332.7 196.4 336.0 195.4 337.1C193.6 339.1 193.5 342.5 193.2 435.3C193.1 488.2 193.2 532.0 193.5 532.7C193.8 533.8 212.4 534.0 285.7 533.8L377.5 533.5L377.5 389.7ZM462.0 328.7C462.0 144.5 461.8 123.2 460.4 121.2C458.3 118.2 453.6 118.3 447.4 121.6C444.7 123.0 434.2 128.5 424.0 133.7C413.8 139.0 401.2 145.5 396.0 148.3C390.8 151.0 382.2 155.5 377.0 158.3C371.8 161.0 357.8 168.5 346.0 175.0C334.2 181.5 320.4 189.0 315.5 191.7C302.8 198.5 303.0 198.0 303.0 225.3C303.0 238.4 303.4 247.9 304.0 249.1C304.6 250.2 306.1 251.0 307.5 251.0C309.7 251.0 326.6 242.2 371.0 217.8C398.9 202.4 406.0 198.9 407.0 199.5C407.7 199.9 408.0 254.0 408.0 366.4C408.0 457.8 408.3 533.0 408.7 533.3C409.0 533.7 421.2 534.0 435.7 534.0L462.0 534.0L462.0 328.7ZM243.6 487.3C243.3 486.9 243.0 460.0 243.0 427.3L243.0 368.0L247.2 365.3C249.6 363.9 266.1 354.8 284.0 345.3C301.9 335.7 316.9 327.4 317.4 326.9C318.0 326.4 319.2 326.0 320.2 326.0C321.9 326.0 322.0 328.3 322.2 368.8C322.5 444.2 322.0 486.4 320.7 487.2C319.3 488.1 244.5 488.2 243.6 487.3Z"/><path fill="#ADBE8E" fill-rule="evenodd" d="M612.5 414.0C612.5 303.2 612.4 294.2 610.8 291.8C609.2 289.4 600.7 284.5 571.5 269.0C566.0 266.1 559.5 262.6 557.0 261.2C554.5 259.9 542.8 253.6 531.0 247.2C519.2 240.9 506.3 234.0 502.4 231.9C494.8 227.7 491.1 227.1 488.6 229.6C487.2 231.0 487.0 234.6 487.2 257.8L487.5 284.5L501.5 292.1C535.7 310.6 551.1 319.0 554.9 321.4L559.0 324.0L558.8 405.8L558.5 487.5L522.8 487.8L487.0 488.0L487.0 511.0L487.0 534.0L549.8 533.8L612.5 533.5L612.5 414.0Z"/></svg>
