<svg xmlns="http://www.w3.org/2000/svg" viewBox="189 115 1695 428" role="img" aria-label="bürOS"><path fill="#F7F4E6" fill-rule="evenodd" d="M377.5 389.7L377.5 245.8L375.1 243.9C371.4 240.9 368.2 241.6 356.5 248.1C350.4 251.5 339.9 257.3 333.0 261.0C326.1 264.7 311.3 272.8 300.0 279.0C288.7 285.2 272.1 294.3 263.0 299.3C253.9 304.2 239.8 312.0 231.5 316.5C223.2 321.0 212.2 327.1 206.9 329.9C201.6 332.7 196.4 336.0 195.4 337.1C193.6 339.1 193.5 342.5 193.2 435.3C193.1 488.2 193.2 532.0 193.5 532.7C193.8 533.8 212.4 534.0 285.7 533.8L377.5 533.5L377.5 389.7ZM462.0 328.7C462.0 144.5 461.8 123.2 460.4 121.2C458.3 118.2 453.6 118.3 447.4 121.6C444.7 123.0 434.2 128.5 424.0 133.7C413.8 139.0 401.2 145.5 396.0 148.3C390.8 151.0 382.2 155.5 377.0 158.3C371.8 161.0 357.8 168.5 346.0 175.0C334.2 181.5 320.4 189.0 315.5 191.7C302.8 198.5 303.0 198.0 303.0 225.3C303.0 238.4 303.4 247.9 304.0 249.1C304.6 250.2 306.1 251.0 307.5 251.0C309.7 251.0 326.6 242.2 371.0 217.8C398.9 202.4 406.0 198.9 407.0 199.5C407.7 199.9 408.0 254.0 408.0 366.4C408.0 457.8 408.3 533.0 408.7 533.3C409.0 533.7 421.2 534.0 435.7 534.0L462.0 534.0L462.0 328.7ZM243.6 487.3C243.3 486.9 243.0 460.0 243.0 427.3L243.0 368.0L247.2 365.3C249.6 363.9 266.1 354.8 284.0 345.3C301.9 335.7 316.9 327.4 317.4 326.9C318.0 326.4 319.2 326.0 320.2 326.0C321.9 326.0 322.0 328.3 322.2 368.8C322.5 444.2 322.0 486.4 320.7 487.2C319.3 488.1 244.5 488.2 243.6 487.3ZM1094.5 536.8C1110.5 532.9 1122.5 526.6 1133.8 516.5C1138.6 512.2 1138.8 512.1 1139.4 514.3C1139.7 515.5 1140.0 520.4 1140.0 525.2L1140.0 534.0L1169.0 534.0L1198.0 534.0L1198.0 432.0L1198.0 330.0L1169.0 330.0L1140.0 330.0L1139.9 350.8C1139.5 437.1 1139.4 442.2 1137.3 449.1C1134.7 458.0 1130.8 464.4 1124.0 471.0C1114.2 480.6 1103.2 485.0 1089.0 485.0C1076.5 485.0 1067.1 481.5 1058.2 473.5C1052.4 468.3 1049.0 463.1 1045.7 454.3C1043.5 448.6 1043.5 447.3 1043.0 389.5L1042.5 330.5L1013.5 330.5L984.5 330.5L984.5 394.5C984.5 457.6 984.5 458.6 986.8 469.0C992.0 492.6 1004.9 512.1 1023.8 524.9C1043.4 538.1 1070.7 542.7 1094.5 536.8ZM895.5 535.5C931.9 526.3 960.4 497.9 970.6 460.5C975.7 442.1 974.8 413.5 968.6 395.2C961.7 375.0 945.8 353.7 929.0 342.3C918.4 335.1 902.6 328.5 889.5 325.9C880.8 324.2 861.0 324.5 852.0 326.5C839.2 329.4 825.2 336.7 813.3 346.7C810.5 349.0 807.9 351.0 807.5 351.0C807.1 351.0 806.9 338.1 807.0 322.2C807.1 306.4 807.1 284.2 807.1 272.8L807.0 252.0L778.0 252.0L749.0 252.0L749.0 393.0L749.0 534.0L777.9 534.0L806.7 534.0L807.4 528.8C807.7 525.9 808.0 520.9 808.0 517.6L808.0 511.8L811.8 515.2C824.6 526.7 842.6 535.3 859.5 538.0C868.8 539.4 884.3 538.4 895.5 535.5ZM1270.2 473.2L1270.5 412.5L1272.9 406.5C1277.1 396.0 1288.9 386.9 1300.0 385.5C1309.5 384.2 1308.5 387.6 1308.2 356.9L1307.9 329.7L1292.2 330.3C1273.2 330.9 1264.8 332.9 1250.5 339.9C1238.7 345.7 1230.1 353.1 1223.7 362.8C1218.4 370.8 1216.6 374.9 1213.7 385.5C1211.7 393.2 1211.6 395.8 1211.3 463.8L1210.9 534.0L1240.4 534.0L1269.9 534.0L1270.2 473.2ZM849.3 483.6C830.6 479.3 814.3 463.6 809.5 445.5C802.3 417.6 818.9 388.8 846.9 380.6C853.3 378.7 866.6 378.5 874.2 380.1C899.2 385.4 916.9 410.1 914.7 436.5C912.9 457.3 898.4 475.8 878.5 482.5C871.6 484.8 857.1 485.3 849.3 483.6ZM1069.0 280.8C1069.0 266.3 1068.7 253.5 1068.4 252.2L1067.8 250.0L1038.9 250.0L1010.0 250.0L1010.0 278.5L1010.0 307.0L1039.5 307.0L1069.0 307.0L1069.0 280.8ZM1175.0 278.5L1175.0 250.0L1145.4 250.0L1115.9 250.0L1116.1 277.8C1116.2 293.0 1116.4 305.8 1116.7 306.2C1116.9 306.7 1130.1 307.0 1146.1 307.0L1175.0 307.0L1175.0 278.5Z"/><path fill="#ADBE8E" fill-rule="evenodd" d="M612.5 414.0C612.5 303.2 612.4 294.2 610.8 291.8C609.2 289.4 600.7 284.5 571.5 269.0C566.0 266.1 559.5 262.6 557.0 261.2C554.5 259.9 542.8 253.6 531.0 247.2C519.2 240.9 506.3 234.0 502.4 231.9C494.8 227.7 491.1 227.1 488.6 229.6C487.2 231.0 487.0 234.6 487.2 257.8L487.5 284.5L501.5 292.1C535.7 310.6 551.1 319.0 554.9 321.4L559.0 324.0L558.8 405.8L558.5 487.5L522.8 487.8L487.0 488.0L487.0 511.0L487.0 534.0L549.8 533.8L612.5 533.5L612.5 414.0ZM1485.1 539.0C1511.0 536.3 1536.4 527.2 1556.5 513.2C1560.9 510.1 1569.2 502.9 1575.0 497.1C1611.0 461.0 1626.2 407.3 1615.0 355.5C1601.8 295.0 1554.8 251.6 1493.0 242.9C1488.3 242.3 1478.7 241.7 1471.5 241.7C1431.8 241.8 1393.8 257.4 1366.0 285.0C1343.1 307.6 1328.6 334.7 1322.3 366.5C1319.6 380.1 1319.9 410.0 1322.8 423.5C1329.0 452.5 1342.4 477.3 1362.9 497.9C1393.6 528.9 1437.8 543.7 1485.1 539.0ZM1764.6 539.0C1791.9 536.6 1810.4 531.9 1829.5 522.5C1855.1 510.0 1870.5 493.6 1877.7 471.2C1881.0 460.9 1882.0 441.1 1879.6 430.0C1875.4 410.0 1860.6 392.3 1839.2 381.6C1819.3 371.6 1797.3 366.3 1733.1 356.0C1717.4 353.5 1704.2 349.8 1698.4 346.5C1687.7 340.2 1684.5 329.8 1690.0 318.9C1695.5 308.2 1713.1 301.0 1738.1 299.0C1759.1 297.4 1779.3 300.3 1793.5 306.9C1806.2 312.9 1813.0 321.3 1814.6 332.9L1815.3 338.0L1848.1 338.0L1881.0 338.0L1881.0 333.8C1881.0 321.2 1876.1 304.8 1868.8 293.0C1854.3 269.4 1828.2 253.4 1791.0 245.4C1775.0 241.9 1741.1 240.9 1724.2 243.4C1700.0 247.0 1680.3 253.6 1663.1 264.0C1652.4 270.4 1644.9 277.0 1637.7 286.5C1625.7 302.3 1621.3 316.7 1622.3 337.0C1623.3 359.9 1632.7 376.9 1651.4 389.9C1670.9 403.3 1692.7 409.5 1748.2 417.5C1772.8 421.0 1791.3 425.0 1800.2 428.9C1810.7 433.4 1816.9 442.5 1815.6 451.7C1813.1 469.9 1791.0 481.4 1756.0 482.7C1737.7 483.3 1725.9 481.7 1712.5 476.9C1697.0 471.3 1689.1 462.3 1686.8 447.7L1685.5 440.0L1653.9 440.0L1622.3 440.0L1621.7 443.8C1620.9 448.1 1623.4 466.3 1625.7 472.9C1637.7 508.6 1672.3 531.6 1723.5 537.9C1740.4 540.0 1750.3 540.3 1764.6 539.0ZM1454.8 481.0C1431.3 476.8 1413.0 465.1 1399.5 446.0C1389.2 431.5 1384.2 415.9 1383.3 396.0C1382.3 374.1 1387.3 356.2 1399.1 338.4C1411.0 320.7 1429.5 308.0 1450.6 302.9C1458.1 301.1 1461.6 300.9 1472.5 301.2C1483.8 301.6 1486.8 302.1 1495.0 304.9C1508.6 309.5 1517.0 314.8 1527.5 325.4C1545.2 343.3 1553.1 363.1 1553.1 389.5C1553.2 403.9 1551.9 412.7 1548.1 423.7C1538.6 451.2 1517.6 471.2 1490.0 479.0C1481.6 481.4 1462.7 482.5 1454.8 481.0Z"/></svg>
